<svg width="323" height="223" viewBox="0 0 323 223" fill="none" xmlns="http://www.w3.org/2000/svg">
<path d="M200.5 35.5L197 7H3L5 166L200.5 35.5Z" fill="#E6AC52"/>
<path d="M85 100L125 66" stroke="#2D2D2D" stroke-width="2"/>
<path d="M154.5 40.5L194 7" stroke="#2D2D2D"/>
<path d="M194.75 6.99341L194.736 6.47202L194.338 6.80931L10.3383 162.809L9.97801 163.115L10.4333 163.241L199.933 215.741L200.259 215.831L200.25 215.493L194.75 6.99341Z" fill="#B42F2B" stroke="#2D2D2D" stroke-width="0.5"/>
<path d="M318 117L207.5 216L197 8L318 117Z" fill="#3F835B" stroke="#2D2D2D" stroke-width="6"/>
<path d="M318 117L207.5 216L197 8L318 117Z" fill="#3F835B" stroke="#2D2D2D" stroke-width="6"/>
<path d="M198.5 36.5L202.5 218L1 164.5" stroke="#2D2D2D" stroke-width="6"/>
<path d="M3 167.5V4L194 4" stroke="#2D2D2D" stroke-width="6"/>
<path d="M167 18H17V138.5L167 18Z" fill="#3F835B" stroke="#2D2D2D" stroke-width="6"/>
<path d="M199.867 215.982L200.524 216.164L200.5 215.482L197 116.482L196.985 116.067L196.574 116.005L136.074 107.005L135.93 106.984L135.798 107.043L10.2978 162.543L9.01859 163.108L10.3665 163.482L199.867 215.982Z" fill="#E6AC52" stroke="#2D2D2D"/>
<path d="M139.5 137L139 151.22" stroke="#2D2D2D" stroke-width="0.5"/>
<path d="M181.844 141.132C192.238 150.943 192.339 167.745 182.035 178.661C171.73 189.577 154.951 190.444 144.557 180.633C134.163 170.822 134.062 154.02 144.367 143.104C154.671 132.188 171.45 131.321 181.844 141.132Z" stroke="#2D2D2D" stroke-width="0.5"/>
<path d="M144 121L143.5 144" stroke="#2D2D2D" stroke-width="0.5"/>
<path d="M183 135V177.5" stroke="#2D2D2D" stroke-width="0.5"/>
<g filter="url(#filter0_d_401_2)">
<path d="M152.804 139.15C153.744 139.385 154.545 139.559 155.209 139.67C155.873 139.782 156.435 139.813 156.896 139.763C157.358 139.706 157.742 139.555 158.048 139.309C158.353 139.063 158.619 138.705 158.847 138.236C159.084 137.761 159.301 137.162 159.498 136.441C159.703 135.715 159.933 134.845 160.187 133.831C160.441 132.818 160.648 131.946 160.808 131.216C160.976 130.48 161.068 129.85 161.081 129.327C161.103 128.798 161.038 128.353 160.885 127.992C160.731 127.631 160.464 127.321 160.081 127.059C159.7 126.791 159.191 126.549 158.553 126.334C157.922 126.121 157.134 125.896 156.187 125.659L145.547 122.991L142.165 136.482L152.804 139.15ZM139.589 137.724L143.862 120.682L156.632 123.884C157.934 124.21 159.009 124.562 159.858 124.94C160.715 125.312 161.394 125.726 161.893 126.181C162.399 126.638 162.75 127.139 162.943 127.683C163.145 128.229 163.236 128.837 163.217 129.508C163.207 130.174 163.113 130.909 162.935 131.714C162.766 132.513 162.56 133.396 162.317 134.365C162.075 135.334 161.838 136.214 161.608 137.006C161.388 137.792 161.124 138.484 160.816 139.083C160.518 139.677 160.152 140.167 159.717 140.553C159.289 140.941 158.744 141.217 158.082 141.381C157.427 141.547 156.633 141.596 155.699 141.527C154.774 141.452 153.661 141.252 152.359 140.925L139.589 137.724ZM176.875 136.883C178.043 137.176 179.033 137.475 179.845 137.781C180.657 138.087 181.323 138.407 181.845 138.742C182.375 139.072 182.775 139.42 183.045 139.786C183.315 140.152 183.497 140.54 183.591 140.949C183.687 141.35 183.705 141.779 183.646 142.236C183.593 142.695 183.503 143.183 183.373 143.701C183.243 144.218 183.072 144.694 182.861 145.129C182.659 145.558 182.393 145.931 182.062 146.249C181.73 146.567 181.324 146.823 180.843 147.017C180.362 147.211 179.781 147.332 179.101 147.382C178.42 147.431 177.623 147.397 176.71 147.278C175.802 147.168 174.756 146.965 173.572 146.668L170.732 145.956C169.667 145.689 168.745 145.415 167.967 145.133C167.188 144.851 166.531 144.557 165.995 144.249C165.461 143.935 165.036 143.604 164.722 143.258C164.41 142.905 164.182 142.529 164.038 142.131C163.903 141.728 163.846 141.297 163.867 140.839C163.889 140.372 163.967 139.873 164.101 139.341L166.231 139.875C166.064 140.54 166.029 141.086 166.127 141.511C166.225 141.937 166.472 142.301 166.867 142.605C167.265 142.901 167.816 143.165 168.52 143.397C169.234 143.623 170.123 143.869 171.188 144.136L174.029 144.848C175.271 145.16 176.318 145.359 177.169 145.447C178.019 145.534 178.721 145.51 179.274 145.373C179.827 145.237 180.256 144.987 180.559 144.623C180.864 144.251 181.092 143.766 181.242 143.167C181.393 142.567 181.448 142.051 181.407 141.616C181.374 141.183 181.184 140.797 180.837 140.459C180.496 140.122 179.972 139.814 179.264 139.534C178.558 139.247 177.613 138.955 176.43 138.658L173.501 137.924C172.199 137.597 171.094 137.269 170.186 136.939C169.286 136.612 168.543 136.28 167.959 135.945C167.377 135.602 166.93 135.251 166.62 134.89C166.311 134.522 166.101 134.139 165.988 133.741C165.883 133.345 165.854 132.929 165.9 132.492C165.949 132.049 166.035 131.579 166.159 131.083C166.289 130.566 166.454 130.096 166.654 129.674C166.861 129.255 167.135 128.899 167.476 128.607C167.818 128.307 168.243 128.072 168.75 127.9C169.256 127.729 169.873 127.636 170.6 127.621C171.336 127.601 172.197 127.664 173.183 127.809C174.168 127.954 175.312 128.189 176.614 128.516L178.744 129.05C179.809 129.317 180.731 129.591 181.509 129.873C182.29 130.147 182.947 130.442 183.481 130.756C184.017 131.064 184.443 131.391 184.757 131.737C185.08 132.077 185.309 132.449 185.444 132.852C185.588 133.25 185.65 133.678 185.629 134.137C185.608 134.595 185.531 135.091 185.398 135.624L183.267 135.09C183.434 134.424 183.469 133.878 183.371 133.453C183.273 133.027 183.026 132.667 182.628 132.37C182.233 132.067 181.678 131.802 180.965 131.576C180.253 131.342 179.364 131.092 178.299 130.825L176.169 130.291C174.749 129.935 173.567 129.694 172.624 129.567C171.683 129.434 170.916 129.418 170.324 129.521C169.732 129.625 169.283 129.85 168.976 130.197C168.668 130.545 168.44 131.018 168.289 131.617C168.197 131.987 168.14 132.323 168.119 132.624C168.099 132.926 168.138 133.207 168.238 133.468C168.347 133.723 168.527 133.961 168.779 134.181C169.03 134.401 169.38 134.619 169.83 134.834C170.279 135.048 170.838 135.263 171.508 135.478C172.186 135.688 172.999 135.911 173.946 136.149L176.875 136.883Z" fill="#B42F2B"/>
<path d="M156.896 139.763L156.948 140.248L156.956 140.247L156.896 139.763ZM158.847 138.236L158.41 138.018L158.408 138.023L158.847 138.236ZM159.498 136.441L159.028 136.308L159.027 136.313L159.498 136.441ZM160.808 131.216L160.332 131.107L160.331 131.112L160.808 131.216ZM161.081 129.327L160.593 129.306L160.593 129.314L161.081 129.327ZM160.081 127.059L159.8 127.458L159.806 127.463L160.081 127.059ZM158.553 126.334L158.397 126.797L158.397 126.797L158.553 126.334ZM145.547 122.991L145.666 122.518L145.192 122.399L145.074 122.872L145.547 122.991ZM142.165 136.482L141.691 136.364L141.573 136.837L142.046 136.956L142.165 136.482ZM139.589 137.724L139.116 137.605L138.997 138.078L139.471 138.197L139.589 137.724ZM143.862 120.682L143.98 120.209L143.507 120.09L143.388 120.563L143.862 120.682ZM159.858 124.94L159.659 125.386L159.663 125.388L159.858 124.94ZM161.893 126.181L161.564 126.542L161.566 126.544L161.893 126.181ZM162.943 127.683L162.484 127.847L162.485 127.852L162.943 127.683ZM163.217 129.508L162.729 129.495L162.729 129.501L163.217 129.508ZM162.935 131.714L162.459 131.608L162.458 131.613L162.935 131.714ZM161.608 137.006L161.14 136.87L161.138 136.874L161.608 137.006ZM160.816 139.083L160.382 138.86L160.38 138.864L160.816 139.083ZM159.717 140.553L159.393 140.188L159.389 140.191L159.717 140.553ZM158.082 141.381L157.965 140.907L157.962 140.908L158.082 141.381ZM155.699 141.527L155.66 142.013L155.663 142.013L155.699 141.527ZM152.686 139.623C153.633 139.861 154.448 140.037 155.129 140.152L155.29 139.189C154.643 139.08 153.855 138.91 152.923 138.677L152.686 139.623ZM155.129 140.152C155.818 140.267 156.428 140.304 156.948 140.248L156.844 139.278C156.443 139.321 155.928 139.296 155.29 139.189L155.129 140.152ZM156.956 140.247C157.491 140.181 157.965 140.002 158.354 139.689L157.742 138.929C157.519 139.107 157.226 139.231 156.836 139.279L156.956 140.247ZM158.354 139.689C158.73 139.386 159.037 138.963 159.286 138.449L158.408 138.023C158.202 138.448 157.975 138.74 157.742 138.929L158.354 139.689ZM159.284 138.454C159.54 137.941 159.767 137.31 159.968 136.57L159.027 136.313C158.835 137.015 158.629 137.58 158.411 138.018L159.284 138.454ZM159.967 136.574C160.175 135.841 160.406 134.966 160.661 133.95L159.714 133.713C159.461 134.723 159.232 135.588 159.028 136.308L159.967 136.574ZM160.661 133.95C160.916 132.934 161.124 132.057 161.284 131.32L160.331 131.112C160.173 131.836 159.967 132.702 159.714 133.713L160.661 133.95ZM161.283 131.325C161.457 130.57 161.554 129.906 161.569 129.339L160.593 129.314C160.581 129.794 160.496 130.39 160.332 131.107L161.283 131.325ZM161.568 129.347C161.593 128.77 161.524 128.248 161.334 127.801L160.436 128.183C160.552 128.458 160.614 128.825 160.593 129.306L161.568 129.347ZM161.334 127.801C161.138 127.34 160.801 126.96 160.356 126.656L159.806 127.463C160.126 127.681 160.325 127.923 160.436 128.183L161.334 127.801ZM160.362 126.661C159.93 126.356 159.373 126.096 158.709 125.872L158.397 126.797C159.008 127.003 159.47 127.226 159.8 127.458L160.362 126.661ZM158.709 125.872C158.062 125.653 157.26 125.425 156.306 125.185L156.068 126.132C157.008 126.368 157.783 126.589 158.397 126.797L158.709 125.872ZM156.306 125.185L145.666 122.518L145.428 123.465L156.068 126.132L156.306 125.185ZM145.074 122.872L141.691 136.364L142.638 136.601L146.02 123.11L145.074 122.872ZM142.046 136.956L152.686 139.623L152.923 138.677L142.283 136.009L142.046 136.956ZM140.063 137.842L144.335 120.801L143.388 120.563L139.116 137.605L140.063 137.842ZM143.743 121.155L156.513 124.357L156.751 123.41L143.98 120.209L143.743 121.155ZM156.513 124.357C157.799 124.679 158.845 125.023 159.659 125.386L160.056 124.494C159.173 124.101 158.069 123.741 156.751 123.41L156.513 124.357ZM159.663 125.388C160.489 125.746 161.117 126.134 161.564 126.542L162.222 125.821C161.671 125.318 160.942 124.878 160.052 124.492L159.663 125.388ZM161.566 126.544C162.023 126.956 162.322 127.392 162.484 127.847L163.403 127.519C163.178 126.886 162.776 126.32 162.22 125.819L161.566 126.544ZM162.485 127.852C162.662 128.331 162.746 128.876 162.729 129.495L163.705 129.522C163.725 128.798 163.627 128.126 163.401 127.514L162.485 127.852ZM162.729 129.501C162.72 130.127 162.631 130.829 162.459 131.608L163.412 131.819C163.595 130.99 163.695 130.221 163.705 129.515L162.729 129.501ZM162.458 131.613C162.29 132.405 162.086 133.282 161.844 134.247L162.791 134.484C163.035 133.51 163.242 132.621 163.413 131.815L162.458 131.613ZM161.844 134.247C161.602 135.211 161.368 136.085 161.14 136.87L162.077 137.142C162.309 136.344 162.547 135.458 162.791 134.484L161.844 134.247ZM161.138 136.874C160.925 137.635 160.672 138.296 160.382 138.86L161.25 139.306C161.576 138.673 161.851 137.949 162.078 137.138L161.138 136.874ZM160.38 138.864C160.106 139.41 159.775 139.848 159.393 140.188L160.041 140.918C160.528 140.485 160.93 139.943 161.252 139.302L160.38 138.864ZM159.389 140.191C159.031 140.516 158.563 140.759 157.965 140.907L158.2 141.855C158.926 141.675 159.547 141.366 160.045 140.914L159.389 140.191ZM157.962 140.908C157.374 141.057 156.635 141.106 155.735 141.04L155.663 142.013C156.631 142.085 157.481 142.037 158.202 141.854L157.962 140.908ZM155.738 141.04C154.849 140.968 153.764 140.774 152.478 140.452L152.241 141.399C153.558 141.729 154.699 141.936 155.66 142.013L155.738 141.04ZM152.478 140.452L139.708 137.25L139.471 138.197L152.241 141.399L152.478 140.452ZM181.845 138.742L181.581 139.153L181.587 139.157L181.845 138.742ZM183.591 140.949L183.115 141.058L183.116 141.062L183.591 140.949ZM183.646 142.236L183.162 142.173L183.161 142.181L183.646 142.236ZM182.861 145.129L182.422 144.916L182.42 144.921L182.861 145.129ZM176.71 147.278L176.773 146.794L176.768 146.793L176.71 147.278ZM165.995 144.249L165.747 144.67L165.752 144.673L165.995 144.249ZM164.722 143.258L164.357 143.581L164.361 143.586L164.722 143.258ZM164.038 142.131L163.575 142.286L163.579 142.298L164.038 142.131ZM163.867 140.839L163.379 140.815L163.379 140.817L163.867 140.839ZM164.101 139.341L164.219 138.867L163.746 138.749L163.627 139.222L164.101 139.341ZM166.231 139.875L166.704 139.993L166.823 139.52L166.35 139.401L166.231 139.875ZM166.867 142.605L166.57 142.992L166.576 142.996L166.867 142.605ZM168.52 143.397L168.368 143.86L168.373 143.862L168.52 143.397ZM180.559 144.623L180.934 144.935L180.936 144.932L180.559 144.623ZM181.407 141.616L180.921 141.653L180.921 141.661L181.407 141.616ZM180.837 140.459L180.493 140.805L180.496 140.808L180.837 140.459ZM179.264 139.534L179.08 139.986L179.085 139.988L179.264 139.534ZM170.186 136.939L170.019 137.398L170.019 137.398L170.186 136.939ZM167.959 135.945L167.712 136.366L167.716 136.368L167.959 135.945ZM166.62 134.89L166.246 135.203L166.25 135.208L166.62 134.89ZM165.988 133.741L165.516 133.866L165.519 133.874L165.988 133.741ZM165.9 132.492L165.415 132.44L165.415 132.441L165.9 132.492ZM166.654 129.674L166.216 129.458L166.213 129.465L166.654 129.674ZM167.476 128.607L167.793 128.977L167.797 128.974L167.476 128.607ZM170.6 127.621L170.61 128.109L170.613 128.109L170.6 127.621ZM181.509 129.873L181.343 130.332L181.348 130.333L181.509 129.873ZM183.481 130.756L183.233 131.177L183.238 131.18L183.481 130.756ZM184.757 131.737L184.395 132.065L184.403 132.073L184.757 131.737ZM185.444 132.852L184.981 133.007L184.985 133.018L185.444 132.852ZM185.398 135.624L185.279 136.097L185.752 136.216L185.871 135.742L185.398 135.624ZM183.267 135.09L182.794 134.971L182.675 135.444L183.149 135.563L183.267 135.09ZM182.628 132.37L182.331 132.758L182.337 132.762L182.628 132.37ZM180.965 131.576L180.812 132.04L180.817 132.041L180.965 131.576ZM172.624 129.567L172.555 130.051L172.559 130.051L172.624 129.567ZM168.238 133.468L167.782 133.642L167.786 133.651L167.789 133.659L168.238 133.468ZM171.508 135.478L171.358 135.943L171.364 135.945L171.508 135.478ZM176.756 137.356C177.913 137.646 178.884 137.941 179.673 138.238L180.017 137.324C179.183 137.01 178.174 136.705 176.993 136.41L176.756 137.356ZM179.673 138.238C180.464 138.536 181.097 138.842 181.581 139.153L182.109 138.332C181.549 137.972 180.849 137.638 180.017 137.324L179.673 138.238ZM181.587 139.157C182.083 139.465 182.43 139.774 182.652 140.075L183.438 139.497C183.121 139.065 182.667 138.678 182.102 138.328L181.587 139.157ZM182.652 140.075C182.886 140.393 183.037 140.72 183.115 141.058L184.067 140.839C183.956 140.36 183.744 139.912 183.438 139.497L182.652 140.075ZM183.116 141.062C183.197 141.4 183.214 141.768 183.162 142.173L184.129 142.299C184.196 141.79 184.177 141.301 184.066 140.835L183.116 141.062ZM183.161 142.181C183.111 142.615 183.025 143.082 182.899 143.582L183.846 143.819C183.98 143.284 184.076 142.774 184.13 142.291L183.161 142.181ZM182.899 143.582C182.777 144.07 182.617 144.514 182.422 144.916L183.3 145.342C183.528 144.875 183.709 144.366 183.846 143.819L182.899 143.582ZM182.42 144.921C182.242 145.298 182.01 145.622 181.724 145.897L182.399 146.601C182.775 146.241 183.076 145.818 183.303 145.337L182.42 144.921ZM181.724 145.897C181.443 146.167 181.091 146.391 180.661 146.564L181.026 147.469C181.557 147.255 182.018 146.968 182.399 146.601L181.724 145.897ZM180.661 146.564C180.239 146.734 179.711 146.848 179.065 146.895L179.136 147.869C179.852 147.817 180.486 147.687 181.026 147.469L180.661 146.564ZM179.065 146.895C178.427 146.942 177.664 146.91 176.773 146.794L176.647 147.762C177.582 147.883 178.414 147.921 179.136 147.869L179.065 146.895ZM176.768 146.793C175.886 146.686 174.861 146.488 173.691 146.195L173.454 147.141C174.651 147.441 175.717 147.649 176.651 147.762L176.768 146.793ZM173.691 146.195L170.851 145.482L170.613 146.429L173.454 147.141L173.691 146.195ZM170.851 145.482C169.797 145.218 168.892 144.949 168.133 144.674L167.801 145.592C168.599 145.881 169.537 146.159 170.613 146.429L170.851 145.482ZM168.133 144.674C167.373 144.399 166.743 144.116 166.238 143.826L165.752 144.673C166.319 144.998 167.004 145.304 167.801 145.592L168.133 144.674ZM166.243 143.829C165.738 143.531 165.356 143.23 165.084 142.93L164.361 143.586C164.717 143.978 165.184 144.338 165.747 144.67L166.243 143.829ZM165.088 142.935C164.812 142.622 164.618 142.299 164.497 141.965L163.579 142.298C163.746 142.759 164.008 143.187 164.357 143.581L165.088 142.935ZM164.501 141.977C164.386 141.635 164.336 141.264 164.354 140.86L163.379 140.817C163.356 141.33 163.42 141.822 163.575 142.286L164.501 141.977ZM164.354 140.862C164.375 140.433 164.447 139.966 164.574 139.459L163.627 139.222C163.487 139.78 163.404 140.312 163.379 140.815L164.354 140.862ZM163.982 139.814L166.112 140.348L166.35 139.401L164.219 138.867L163.982 139.814ZM165.758 139.756C165.582 140.458 165.529 141.089 165.652 141.621L166.603 141.402C166.529 141.083 166.547 140.623 166.704 139.993L165.758 139.756ZM165.652 141.621C165.778 142.172 166.098 142.63 166.57 142.992L167.164 142.218C166.845 141.973 166.672 141.701 166.603 141.402L165.652 141.621ZM166.576 142.996C167.031 143.335 167.635 143.619 168.368 143.86L168.672 142.933C167.996 142.71 167.499 142.467 167.159 142.214L166.576 142.996ZM168.373 143.862C169.099 144.092 169.999 144.341 171.07 144.61L171.307 143.663C170.248 143.397 169.368 143.153 168.667 142.931L168.373 143.862ZM171.07 144.61L173.91 145.322L174.147 144.375L171.307 143.663L171.07 144.61ZM173.91 145.322C175.165 145.637 176.236 145.842 177.119 145.932L177.218 144.961C176.399 144.877 175.377 144.683 174.147 144.375L173.91 145.322ZM177.119 145.932C178 146.023 178.763 146.002 179.391 145.847L179.157 144.9C178.679 145.018 178.038 145.046 177.218 144.961L177.119 145.932ZM179.391 145.847C180.024 145.691 180.551 145.394 180.934 144.935L180.184 144.31C179.96 144.579 179.63 144.783 179.157 144.9L179.391 145.847ZM180.936 144.932C181.298 144.492 181.553 143.935 181.716 143.285L180.769 143.048C180.632 143.596 180.43 144.01 180.182 144.313L180.936 144.932ZM181.716 143.285C181.874 142.653 181.94 142.078 181.893 141.571L180.921 141.661C180.955 142.023 180.911 142.482 180.769 143.048L181.716 143.285ZM181.894 141.579C181.851 141.013 181.599 140.52 181.177 140.109L180.496 140.808C180.769 141.074 180.898 141.353 180.921 141.653L181.894 141.579ZM181.18 140.112C180.773 139.709 180.181 139.371 179.443 139.08L179.085 139.988C179.764 140.256 180.219 140.534 180.493 140.805L181.18 140.112ZM179.448 139.082C178.712 138.782 177.742 138.484 176.548 138.185L176.311 139.131C177.484 139.425 178.404 139.711 179.08 139.986L179.448 139.082ZM176.548 138.185L173.619 137.45L173.382 138.397L176.311 139.131L176.548 138.185ZM173.619 137.45C172.328 137.127 171.24 136.803 170.353 136.481L170.019 137.398C170.948 137.735 172.07 138.068 173.382 138.397L173.619 137.45ZM170.353 136.481C169.469 136.159 168.754 135.838 168.202 135.522L167.716 136.368C168.332 136.722 169.102 137.064 170.019 137.398L170.353 136.481ZM168.207 135.524C167.653 135.198 167.254 134.879 166.99 134.571L166.25 135.208C166.607 135.623 167.101 136.006 167.712 136.365L168.207 135.524ZM166.994 134.576C166.722 134.252 166.549 133.929 166.458 133.608L165.519 133.874C165.653 134.348 165.9 134.791 166.246 135.203L166.994 134.576ZM166.46 133.616C166.371 133.281 166.345 132.926 166.385 132.544L165.415 132.441C165.363 132.932 165.395 133.409 165.516 133.866L166.46 133.616ZM166.385 132.545C166.431 132.127 166.513 131.679 166.633 131.202L165.686 130.965C165.557 131.479 165.466 131.971 165.415 132.44L166.385 132.545ZM166.633 131.202C166.756 130.711 166.91 130.272 167.095 129.884L166.213 129.465C165.997 129.92 165.822 130.42 165.686 130.965L166.633 131.202ZM167.091 129.891C167.271 129.527 167.505 129.225 167.793 128.977L167.158 128.236C166.765 128.573 166.452 128.982 166.216 129.458L167.091 129.891ZM167.797 128.974C168.083 128.724 168.449 128.517 168.906 128.363L168.593 127.438C168.036 127.627 167.553 127.891 167.154 128.239L167.797 128.974ZM168.906 128.363C169.352 128.212 169.916 128.123 170.61 128.109L170.591 127.133C169.83 127.148 169.161 127.246 168.593 127.438L168.906 128.363ZM170.613 128.109C171.313 128.09 172.145 128.15 173.112 128.292L173.254 127.326C172.249 127.178 171.359 127.113 170.587 127.133L170.613 128.109ZM173.112 128.292C174.077 128.434 175.204 128.666 176.495 128.989L176.733 128.042C175.42 127.713 174.26 127.474 173.254 127.326L173.112 128.292ZM176.495 128.989L178.625 129.523L178.863 128.577L176.733 128.042L176.495 128.989ZM178.625 129.523C179.679 129.788 180.585 130.057 181.343 130.332L181.675 129.414C180.877 129.125 179.939 128.846 178.863 128.577L178.625 129.523ZM181.348 130.333C182.107 130.6 182.734 130.883 183.234 131.177L183.729 130.336C183.16 130.001 182.472 129.694 181.671 129.413L181.348 130.333ZM183.238 131.18C183.744 131.469 184.125 131.766 184.395 132.065L185.118 131.409C184.761 131.015 184.291 130.658 183.724 130.333L183.238 131.18ZM184.403 132.073C184.682 132.367 184.871 132.678 184.981 133.007L185.907 132.698C185.747 132.22 185.478 131.787 185.111 131.4L184.403 132.073ZM184.985 133.018C185.105 133.351 185.159 133.715 185.141 134.115L186.116 134.159C186.14 133.642 186.07 133.149 185.903 132.686L184.985 133.018ZM185.141 134.115C185.122 134.535 185.051 134.998 184.924 135.505L185.871 135.742C186.011 135.184 186.094 134.656 186.116 134.159L185.141 134.115ZM185.516 135.15L183.386 134.616L183.149 135.563L185.279 136.097L185.516 135.15ZM183.741 135.208C183.917 134.506 183.969 133.875 183.847 133.344L182.896 133.562C182.969 133.882 182.952 134.341 182.794 134.971L183.741 135.208ZM183.847 133.344C183.72 132.79 183.397 132.335 182.92 131.979L182.337 132.762C182.655 132.999 182.827 133.265 182.896 133.562L183.847 133.344ZM182.926 131.983C182.468 131.632 181.855 131.346 181.112 131.111L180.817 132.041C181.501 132.258 181.997 132.501 182.331 132.758L182.926 131.983ZM181.117 131.112C180.39 130.874 179.489 130.62 178.418 130.352L178.18 131.298C179.239 131.564 180.115 131.811 180.812 132.04L181.117 131.112ZM178.418 130.352L176.288 129.818L176.05 130.764L178.18 131.298L178.418 130.352ZM176.288 129.818C174.858 129.459 173.657 129.213 172.689 129.084L172.559 130.051C173.477 130.174 174.639 130.411 176.05 130.764L176.288 129.818ZM172.693 129.084C171.727 128.947 170.903 128.925 170.24 129.041L170.408 130.002C170.929 129.911 171.639 129.92 172.555 130.051L172.693 129.084ZM170.24 129.041C169.572 129.157 169.01 129.422 168.61 129.874L169.341 130.521C169.556 130.278 169.893 130.092 170.408 130.002L170.24 129.041ZM168.61 129.874C168.237 130.296 167.979 130.848 167.816 131.499L168.763 131.736C168.9 131.189 169.1 130.793 169.341 130.521L168.61 129.874ZM167.816 131.499C167.718 131.89 167.655 132.254 167.633 132.591L168.606 132.657C168.624 132.391 168.675 132.085 168.763 131.736L167.816 131.499ZM167.633 132.591C167.608 132.957 167.655 133.31 167.782 133.642L168.694 133.293C168.622 133.104 168.59 132.894 168.606 132.657L167.633 132.591ZM167.789 133.659C167.932 133.994 168.162 134.289 168.457 134.548L169.1 133.814C168.893 133.632 168.762 133.452 168.687 133.276L167.789 133.659ZM168.457 134.548C168.754 134.808 169.147 135.048 169.619 135.274L170.04 134.393C169.613 134.189 169.306 133.994 169.1 133.814L168.457 134.548ZM169.619 135.274C170.094 135.501 170.676 135.724 171.358 135.943L171.657 135.014C171.001 134.803 170.463 134.596 170.04 134.393L169.619 135.274ZM171.364 135.945C172.053 136.157 172.875 136.383 173.827 136.622L174.064 135.675C173.123 135.439 172.319 135.218 171.651 135.012L171.364 135.945ZM173.827 136.622L176.756 137.356L176.993 136.41L174.064 135.675L173.827 136.622Z" fill="#2D2D2D"/>
</g>
<path d="M136 107L195 6" stroke="#2D2D2D" stroke-width="0.5"/>
<path d="M185.5 136V145.5" stroke="#2D2D2D" stroke-width="0.5"/>
<defs>
<filter id="filter0_d_401_2" x="135.489" y="120.327" width="55.0657" height="57.4773" filterUnits="userSpaceOnUse" color-interpolation-filters="sRGB">
<feFlood flood-opacity="0" result="BackgroundImageFix"/>
<feColorMatrix in="SourceAlpha" type="matrix" values="0 0 0 0 0 0 0 0 0 0 0 0 0 0 0 0 0 0 127 0" result="hardAlpha"/>
<feOffset dy="25"/>
<feGaussianBlur stdDeviation="2"/>
<feComposite in2="hardAlpha" operator="out"/>
<feColorMatrix type="matrix" values="0 0 0 0 0 0 0 0 0 0 0 0 0 0 0 0 0 0 0.25 0"/>
<feBlend mode="normal" in2="BackgroundImageFix" result="effect1_dropShadow_401_2"/>
<feBlend mode="normal" in="SourceGraphic" in2="effect1_dropShadow_401_2" result="shape"/>
</filter>
</defs>
</svg>
